<?xml version="1.0" encoding="utf-8"?>
<!-- Generator: Adobe Illustrator 17.1.0, SVG Export Plug-In . SVG Version: 6.00 Build 0)  -->
<!DOCTYPE svg PUBLIC "-//W3C//DTD SVG 1.1//EN" "http://www.w3.org/Graphics/SVG/1.1/DTD/svg11.dtd">
<svg version="1.1" id="Layer_1" xmlns="http://www.w3.org/2000/svg" xmlns:xlink="http://www.w3.org/1999/xlink" x="0px" y="0px"
	 viewBox="0 0 201.6 70.1" enable-background="new 0 0 201.6 70.1" xml:space="preserve">
<path fill="#FFFFFF" d="M34.7,9.3c-13.6,0-24.6,11-24.6,24.6c0,13.6,11,24.6,24.6,24.6c13.6,0,24.6-11,24.6-24.6
	C59.4,20.3,48.3,9.3,34.7,9.3z M34.7,46.1c-6.7,0-12.2-5.5-12.2-12.2S28,21.7,34.7,21.7c6.7,0,12.2,5.5,12.2,12.2
	S41.5,46.1,34.7,46.1z"/>
<g>
	<g>
		<path fill="#FFFFFF" d="M130.8,51.8h-20.5v-36h20.5v7.8h-11.1v6.1h10.5v7.8h-10.5V44h11.1V51.8z"/>
		<path fill="#FFFFFF" d="M166.7,51.8h-11.6L146.2,38v13.8h-9.4v-36h14.6c4.3,0,7.4,1.3,9.4,3.8c1.7,2.1,2.5,4.5,2.5,7.3
			c0,3.2-1,5.7-2.9,7.6c-1.2,1.2-2.9,2.1-5,2.5L166.7,51.8z M153.6,27.4c0-1.3-0.5-2.4-1.4-3.2c-0.9-0.8-2.3-1.2-4.3-1.2h-1.7v9h1.7
			c2,0,3.4-0.4,4.3-1.2C153.1,29.7,153.6,28.7,153.6,27.4z"/>
		<path fill="#FFFFFF" d="M192,23.6h-7.8v28.2h-9.4V23.6h-7.6v-7.8H192V23.6z"/>
	</g>
	<rect x="65.4" y="15.6" fill="#FFFFFF" width="16.6" height="36.2"/>
	<rect x="87.8" y="15.6" fill="#FFFFFF" width="16.6" height="26.2"/>
</g>
</svg>
