<?xml version="1.0" encoding="UTF-8" standalone="no"?>
<!-- Generator: Adobe Illustrator 18.1.1, SVG Export Plug-In . SVG Version: 6.00 Build 0)  -->

<svg
   xmlns:dc="http://purl.org/dc/elements/1.1/"
   xmlns:cc="http://creativecommons.org/ns#"
   xmlns:rdf="http://www.w3.org/1999/02/22-rdf-syntax-ns#"
   xmlns:svg="http://www.w3.org/2000/svg"
   xmlns="http://www.w3.org/2000/svg"
   xmlns:sodipodi="http://sodipodi.sourceforge.net/DTD/sodipodi-0.dtd"
   xmlns:inkscape="http://www.inkscape.org/namespaces/inkscape"
   version="1.1"
   id="Layer_1"
   x="0px"
   y="0px"
   viewBox="0 0 552.2 144.8"
   enable-background="new 0 0 612 792"
   xml:space="preserve"
   inkscape:version="0.48.4 r9939"
   width="100%"
   height="100%"
   sodipodi:docname="ollert-logo-white(1).svg"><metadata
     id="metadata3084"><rdf:RDF><cc:Work
         rdf:about=""><dc:format>image/svg+xml</dc:format><dc:type
           rdf:resource="http://purl.org/dc/dcmitype/StillImage" /><dc:title></dc:title></cc:Work></rdf:RDF></metadata><defs
     id="defs3082" /><sodipodi:namedview
     pagecolor="#ffffff"
     bordercolor="#666666"
     borderopacity="1"
     objecttolerance="10"
     gridtolerance="10"
     guidetolerance="10"
     inkscape:pageopacity="0"
     inkscape:pageshadow="2"
     inkscape:window-width="1094"
     inkscape:window-height="907"
     id="namedview3080"
     showgrid="false"
     fit-margin-top="0"
     fit-margin-left="0"
     fit-margin-right="0"
     fit-margin-bottom="0"
     inkscape:zoom="0.84281414"
     inkscape:cx="225.48409"
     inkscape:cy="-226.12028"
     inkscape:window-x="2316"
     inkscape:window-y="99"
     inkscape:window-maximized="0"
     inkscape:current-layer="Layer_1" /><path
     d="m 72.282689,306.46822 c -40,0 -72.39999984,32.4 -72.39999984,72.4 0,40 32.39999984,72.4 72.39999984,72.4 40.000001,0 72.400001,-32.4 72.400001,-72.4 0.2,-40 -32.4,-72.4 -72.400001,-72.4 z m 0,108.2 c -19.7,0 -35.8,-16.2 -35.8,-35.8 0,-19.6 16.2,-35.8 35.8,-35.8 19.6,0 35.800001,16.2 35.800001,35.8 0.1,19.7 -15.800001,35.8 -35.800001,35.8 z"
     id="path3066"
     inkscape:connector-curvature="0"
     style="fill:#ffffff" /><g
     id="g3068"
     transform="translate(-30.017311,-13.63178)"><path
       d="M 253.2,444.8 H 192.7 V 339 h 27.5 v 83 h 33 v 22.8 z"
       id="path3070"
       inkscape:connector-curvature="0"
       style="fill:#ffffff" /><path
       d="M 327.9,444.8 H 267.3 V 339 h 27.5 v 83 h 33 l 0.1,22.8 0,0 z"
       id="path3072"
       inkscape:connector-curvature="0"
       style="fill:#ffffff" /><path
       d="M 402.2,444.8 H 341.9 V 339 h 60.3 v 23 h -32.7 v 18.1 h 30.9 v 23 H 369.5 V 422 h 32.7 v 22.8 z"
       id="path3074"
       inkscape:connector-curvature="0"
       style="fill:#ffffff" /><path
       d="m 507.7,444.8 h -34.2 l -26.3,-40.7 v 40.7 H 419.7 V 339 h 42.8 c 12.5,0 21.8,3.8 27.8,11.2 4.8,6 7.3,13.2 7.3,21.3 0,9.4 -2.8,16.9 -8.3,22.4 -3.6,3.6 -8.5,6 -14.7,7.5 l 33.1,43.4 z M 469,373 c 0,-3.8 -1.4,-7 -4.2,-9.5 -2.6,-2.4 -6.8,-3.7 -12.5,-3.7 h -5.1 v 26.4 h 5.1 c 5.8,0 10,-1.2 12.5,-3.7 2.9,-2.5 4.2,-5.7 4.2,-9.5 z"
       id="path3076"
       inkscape:connector-curvature="0"
       style="fill:#ffffff" /><path
       d="m 582,362 h -22.8 v 82.9 H 531.7 V 362 h -22.4 v -23 h 72.8 l -0.1,23 0,0 z"
       id="path3078"
       inkscape:connector-curvature="0"
       style="fill:#ffffff" /></g><g
     id="g3107"
     transform="translate(-29.9,-320.1)"><path
       id="path3087"
       d="m 102.3,320.1 c -40,0 -72.4,32.4 -72.4,72.4 0,40 32.4,72.4 72.4,72.4 40,0 72.4,-32.4 72.4,-72.4 0.2,-40 -32.4,-72.4 -72.4,-72.4 z m 0,108.2 c -19.7,0 -35.8,-16.2 -35.8,-35.8 0,-19.6 16.2,-35.8 35.8,-35.8 19.6,0 35.8,16.2 35.8,35.8 0.1,19.7 -15.8,35.8 -35.8,35.8 z"
       inkscape:connector-curvature="0"
       style="fill:#ffffff" /><g
       id="g3089"><path
         id="path3091"
         d="M 253.2,444.8 H 192.7 V 339 h 27.5 v 83 h 33 v 22.8 z"
         inkscape:connector-curvature="0"
         style="fill:#ffffff" /><path
         id="path3093"
         d="M 327.9,444.8 H 267.3 V 339 h 27.5 v 83 h 33 l 0.1,22.8 0,0 z"
         inkscape:connector-curvature="0"
         style="fill:#ffffff" /><path
         id="path3095"
         d="M 402.2,444.8 H 341.9 V 339 h 60.3 v 23 h -32.7 v 18.1 h 30.9 v 23 H 369.5 V 422 h 32.7 v 22.8 z"
         inkscape:connector-curvature="0"
         style="fill:#ffffff" /><path
         id="path3097"
         d="m 507.7,444.8 h -34.2 l -26.3,-40.7 v 40.7 H 419.7 V 339 h 42.8 c 12.5,0 21.8,3.8 27.8,11.2 4.8,6 7.3,13.2 7.3,21.3 0,9.4 -2.8,16.9 -8.3,22.4 -3.6,3.6 -8.5,6 -14.7,7.5 l 33.1,43.4 z M 469,373 c 0,-3.8 -1.4,-7 -4.2,-9.5 -2.6,-2.4 -6.8,-3.7 -12.5,-3.7 h -5.1 v 26.4 h 5.1 c 5.8,0 10,-1.2 12.5,-3.7 2.9,-2.5 4.2,-5.7 4.2,-9.5 z"
         inkscape:connector-curvature="0"
         style="fill:#ffffff" /><path
         id="path3099"
         d="m 582,362 h -22.8 v 82.9 H 531.7 V 362 h -22.4 v -23 h 72.8 l -0.1,23 0,0 z"
         inkscape:connector-curvature="0"
         style="fill:#ffffff" /></g></g></svg>