<?xml version="1.0" encoding="utf-8"?>
<!-- Generator: Adobe Illustrator 18.0.0, SVG Export Plug-In . SVG Version: 6.00 Build 0)  -->
<!DOCTYPE svg PUBLIC "-//W3C//DTD SVG 1.1//EN" "http://www.w3.org/Graphics/SVG/1.1/DTD/svg11.dtd">
<svg version="1.1" id="Layer_1" xmlns="http://www.w3.org/2000/svg" xmlns:xlink="http://www.w3.org/1999/xlink" x="0px" y="0px"
	 viewBox="0 0 500 146" enable-background="new 0 0 500 146" xml:space="preserve">
<g>
	<path fill="#FFFFFF" d="M114.2,123l-11.8-21.9c-3.4-0.1-18.9-0.7-34.8-6.4c-3.5-1.3-6.8-2.7-9.9-4.2c-4.3-2.2-8.3-3.3-12-3.3
		c-10.8,0-15.3,9.7-15.4,9.8l-14.5,26.7c0,0-1.8,3.6-0.8,6c0.3,0.7,1.1,2,2.5,2h95.4c1.4,0,2.2-1.3,2.5-2c0.9-2-0.3-5-0.8-6
		L114.2,123z"/>
</g>
<g>
	<g>
		<path fill="#FFFFFF" d="M115.8,145c7.4,0,11.7-4.7,13.8-9.6c3.4-8.2-2.3-17.7-3.1-19c-1.5-2.8-31.8-58.7-34.9-65
			C87.5,42.8,86.5,37,86.3,36V21.8c3.6-2.5,9-7.1,9-12.6c0-6.5-5.4-9.1-9.1-9.3L44.6,0l-0.1,0c-3.7,0.2-9.1,2.8-9.1,9.3
			c0,5.5,5.4,10.1,9,12.6V36c-0.1,1-1.2,6.8-5.4,15.4c-0.2,0.4-0.5,1-0.9,1.7c-0.3,0.5-0.6,1.1-0.9,1.7l-1.7,3.2
			c-0.6,1-1.2,2.2-1.8,3.4L4.3,116.1L4,116.7c-0.6,1-2.1,3.7-3.1,7l0,0.1c-0.3,1-0.5,1.9-0.6,2.9c-0.4,2.9-0.3,5.5,0.6,7.9
			c0.1,0.3,0.2,0.5,0.3,0.8c2,4.9,6.4,9.6,13.8,9.6 M16.4,137.7c-4.6,0-7.3-2.7-8.4-5.2c-2.1-4.9,2.5-12.1,2.5-12.2l0.2-0.3
			c3.3-6,31.9-58.9,35-65.3C51,44,51.9,37,51.9,36.7l0-19.1l-1.9-1.1c-3.4-2-7.1-5.5-7.1-7.3c0-0.1,0-0.2,0-0.3l0-0.1
			c0,0,0-0.1,0-0.1l0-0.1c0,0,0-0.1,0-0.1l0,0l0-0.1c0,0,0-0.1,0-0.1l0,0l0-0.1c0,0,0-0.1,0-0.1c0,0,0,0,0,0l0.1-0.1
			c0,0,0.1-0.1,0-0.1l0.1-0.1c0,0,0.1,0,0.1-0.1l0,0c0.4-0.3,1-0.4,1.4-0.5h41.1l0.8,0.2L87,6.6l-0.2,1.1l0.1,0l0.5-1l-0.4,1l0.6-1
			l-0.5,1l0.4,0.4l0.2,0.5c0,0,0,0.1,0,0.2l0,0.1c0,0.1,0,0.2,0,0.3c0,1.8-3.8,5.3-7.1,7.3l-1.9,1.1l0,18.7l0,0.4
			c0,0.3,0.9,7.2,6.1,18c3.1,6.4,31.8,59.3,35,65.3l0.3,0.5c0.4,0.7,5.6,8.3,3.8,12.9l-0.1,0.2c0,0.1-0.1,0.1-0.1,0.2l-0.1,0.3
			c0,0.1-0.1,0.1-0.1,0.2l-0.1,0.2c-0.1,0.1-0.1,0.2-0.2,0.3l-0.1,0.1c-0.1,0.1-0.1,0.2-0.2,0.3l-0.1,0.1c-0.1,0.1-0.2,0.2-0.3,0.3
			l-0.1,0.1c-0.1,0.1-0.2,0.2-0.3,0.3l-0.1,0.1c-0.1,0.1-0.3,0.2-0.4,0.3l-0.1,0c-0.1,0.1-0.3,0.2-0.5,0.3c-0.2,0.1-0.3,0.2-0.5,0.3
			c-0.2,0.1-0.4,0.2-0.6,0.3c-0.2,0.1-0.4,0.2-0.6,0.3c-0.6,0.3-1.4,0.5-2.2,0.8c-0.5,0.1-1.1,0.3-1.7,0.4c-0.6,0.1-1.2,0.2-1.9,0.4
			l-0.7,0.1c-0.4,0.1-0.8,0.2-1.2,0.2l-0.9,0.2c-0.3,0.1-0.6,0.1-1,0.2l-3,0.5c-0.3,0-1.9-2.6-2.2-2.6"/>
	</g>
	<g>
		<path fill="#FFFFFF" d="M115.8,145c7.4,0,11.7-4.7,13.8-9.6c0.1-0.3,0.2-0.5,0.3-0.8c0.8-2.4,1-5,0.5-7.9
			c-0.1-0.9-0.4-1.9-0.6-2.9l0-0.1c-1-3.3-2.5-6-3.1-7l-0.4-0.6L97,61.5c-0.6-1.2-1.2-2.3-1.8-3.4l-1.7-3.2
			c-0.3-0.6-0.6-1.2-0.9-1.7c-0.4-0.8-0.7-1.3-0.9-1.7C87.5,42.8,86.5,37,86.3,36V21.8c3.6-2.5,9-7.1,9-12.6c0-6.5-5.4-9.1-9.1-9.3
			l-0.1,0L44.5,0c-3.7,0.2-9.1,2.8-9.1,9.3c0,5.5,5.4,10.1,9,12.6V36c-0.1,1-1.2,6.8-5.4,15.4c-3.1,6.4-33.4,62.2-34.9,65
			c-0.8,1.2-6.5,10.8-3.1,19c2,4.9,6.4,9.6,13.8,9.6 M25.9,137.7c-0.3,0-0.6,1.6-0.9,1.5l-4.2,0.7c-0.3-0.1-0.6-0.1-1-0.2l-1-0.2
			c-0.4-0.1-0.8-0.2-1.2-0.2l-0.7-0.1c-0.6-0.1-1.2-0.2-1.9-0.4c-0.6-0.1-1.2-0.3-1.7-0.4c-0.8-0.2-1.5-0.5-2.2-0.8
			c-0.2-0.1-0.4-0.2-0.6-0.3c-0.2-0.1-0.4-0.2-0.6-0.3c-0.2-0.1-0.4-0.2-0.5-0.3c-0.2-0.1-0.3-0.2-0.5-0.3l-0.1,0
			c-0.1-0.1-0.3-0.2-0.4-0.3L8.5,136c-0.1-0.1-0.2-0.2-0.3-0.3L8,135.6c-0.1-0.1-0.2-0.2-0.3-0.3l-0.1-0.1c-0.1-0.1-0.2-0.2-0.2-0.3
			l-0.1-0.1c-0.1-0.1-0.1-0.2-0.2-0.3L7,134.3c0-0.1-0.1-0.1-0.1-0.2l-0.1-0.3c0-0.1-0.1-0.1-0.1-0.2l-0.1-0.2
			c-1.8-4.6,3.4-12.3,3.8-13l0.3-0.5c3.3-6,31.9-58.9,35-65.3C51,44,51.8,37,51.9,36.7l0-0.4l0-18.7L50,16.5c-3.4-2-7.1-5.5-7.1-7.3
			c0-0.1,0-0.2,0-0.3l0-0.1c0-0.1,0-0.1,0-0.2l0.2-0.5l0.4-0.4l-0.5-1l0.5,1l-0.4-1l0.5,1l0.1,0l-0.2-1.1L44,7.7l0.8-0.2h41.1
			c0.3,0,1,0.1,1.4,0.5l0,0c0,0,0.1,0,0.1,0.1l0.1,0.1c0,0,0,0,0,0.1l0.1,0.1l0,0c0,0,0,0,0,0.1l0,0.1h0c0,0,0,0,0,0.1l0,0.1l0,0
			c0,0,0,0,0,0.1l0,0.1c0,0,0,0.1,0,0.1l0,0.1c0,0.1,0,0.2,0,0.3c0,1.8-3.8,5.3-7.1,7.3l-1.9,1.1l0,19.1c0,0.3,0.9,7.3,6.1,18
			c3.1,6.4,31.8,59.3,35,65.3l0.2,0.3c0.1,0.1,4.6,7.2,2.5,12.2c-1,2.5-3.8,5.2-8.4,5.2"/>
	</g>
</g>
<circle fill="#FFFFFF" cx="75.6" cy="76.4" r="8.7"/>
<circle fill="#FFFFFF" cx="60" cy="60.7" r="6.7"/>
<g>
	<path fill="#FFFFFF" d="M70.7,92.4c5.2,1.8,17.7,5.6,31.4,5.8C99.1,94.4,90.1,85.8,70.7,92.4z"/>
</g>
<g>
	<path fill="#FFFFFF" d="M170,95c-8.4,0-17.1-1.8-23.3-4.7l2.7-12.6c6.6,2.1,13.3,3.5,20.8,3.5c8.4,0,10-1.6,10-7.7
		c0-6.5-0.3-7.3-12.2-9.9c-17.5-3.8-20.1-7.3-20.1-22.9c0-14.4,5.1-20.2,25-20.2c6.3,0,13.9,0.7,21.9,2.4l-1.6,13.7
		c-8.2-1.4-13.6-2.1-20.1-2.1c-7.3,0-8.9,1.3-8.9,6.6c0,6.9,0.3,7.1,11.7,9.8c19.5,4.7,20.5,8.5,20.5,22.7
		C196.4,87.9,191.8,95,170,95z"/>
	<path fill="#FFFFFF" d="M207.8,93.9V21.6h45.5V36h-29.2v13.2H251v14.4h-26.9v15.7h29.2v14.4H207.8z"/>
	<path fill="#FFFFFF" d="M294.4,72h-12.4v21.9h-16.3V21.6h29.5c17.6,0,24.1,6.9,24.1,20.5v9.4C319.4,65.1,312,72,294.4,72z
		 M303.1,43.6c0-5.2-1.8-7.6-8.7-7.6h-12.4v21.8h12.4c7.2,0,8.7-2.7,8.7-7.9V43.6z"/>
	<path fill="#FFFFFF" d="M330.8,93.9V19.4l9.1-1.3v75.8H330.8z"/>
	<path fill="#FFFFFF" d="M394.7,93.9H387l-0.5-3.9c-4.7,3.3-10.7,5-17.1,5c-9.9,0-14-5.9-14-15.2c0-11,5.5-14.9,16.2-14.9h14.1v-8.2
		c0-6.6-2.9-8.9-11.5-8.9c-5.1,0-11.7,0.9-15.8,1.7l-1-7.3c5-1.3,11.7-2.3,17.4-2.3c15.1,0,20.1,5.9,20.1,17.1V93.9z M385.6,72.5
		h-13.5c-5.6,0-7.7,1.7-7.7,7.1c0,5.4,1,7.6,7.5,7.6c4.6,0,9.7-1.7,13.7-4.3V72.5z"/>
	<path fill="#FFFFFF" d="M452.1,75.2c0,12.1-4.3,19.8-22.5,19.8c-4.9,0-12.8-0.7-18.9-2.1V19.4l9.1-1.3v25.5c3.7-2,10-3.7,16.7-3.7
		c11,0,15.5,6.4,15.5,16.5V75.2z M419.9,86.2c3.6,0.5,7.2,0.8,10.4,0.8c10.7,0,12.7-4.3,12.7-11.4V56.1c0-5.4-2.4-8.1-8.6-8.1
		c-4.7,0-11,2.3-14.5,4V86.2z"/>
	<path fill="#FFFFFF" d="M481.7,95c-5.4,0-12.6-1.2-16.8-2.8l1.2-7.2c4.6,1.3,10.5,2.2,15.1,2.2c8.4,0,9.8-1.5,9.8-7.2
		c0-5.6-0.4-6.3-11.1-8.9c-13.1-3.3-14.3-6-14.3-16.9c0-9.8,4.3-14.2,18.2-14.2c5.1,0,10.6,0.6,15,1.8l-0.6,7.5
		c-4.5-0.9-10.3-1.5-14.7-1.5c-7.8,0-8.9,1.8-8.9,6.6c0,5.9,0.1,6.9,9,9.1c15.2,3.8,16.4,5.6,16.4,16.2C500,90,496.8,95,481.7,95z"
		/>
</g>
<g>
	<path fill="#FFFFFF" d="M155,126.6h-8.4V105h8.4c5.3,0,7.3,2.7,7.3,5.6V121C162.3,123.9,160.3,126.6,155,126.6z M157.4,111.9
		c0-1.7-0.6-2.6-3-2.6h-2.9v13h2.9c2.4,0,3-0.9,3-2.6V111.9z"/>
	<path fill="#FFFFFF" d="M183.6,126.6h-5.1l-1.2-4.2h-7.2l-1.2,4.2h-5.1l6.6-21.6h6.5L183.6,126.6z M171.2,118.3h5l-2.5-9.1
		L171.2,118.3z"/>
	<path fill="#FFFFFF" d="M190.7,112.4v14.2H186V105h6l7.1,14.9V105h4.6v21.6h-6L190.7,112.4z"/>
	<path fill="#FFFFFF" d="M215.4,126.9c-5.3,0-7.9-2.7-7.9-6.6v-9c0-4,2.7-6.6,7.9-6.6c2.5,0,5.1,0.3,6.9,0.7l-0.6,4.3
		c-1.9-0.3-4.8-0.5-6.3-0.5c-2.4,0-3.1,1.3-3.1,3v7.4c0,1.7,0.6,3.1,3.1,3.1c1,0,1.6,0,2.9-0.2v-6.6h4.6v10.2
		C220.5,126.6,217.9,126.9,215.4,126.9z"/>
	<path fill="#FFFFFF" d="M226.9,126.6V105h13.6v4.3h-8.7v4h8v4.3h-8v4.7h8.7v4.3H226.9z"/>
	<path fill="#FFFFFF" d="M251.9,119.9h-2.9v6.7h-4.9V105h9c5.3,0,7.2,2.1,7.2,6.1v2.7c0,2.7-1,4.5-3.1,5.4l5.2,7.4h-5.8L251.9,119.9
		z M255.5,111.6c0-1.6-0.6-2.3-2.6-2.3h-3.9v6.4h3.9c2.1,0,2.6-0.7,2.6-2.4V111.6z"/>
	<path fill="#FFFFFF" d="M266.9,119.1l-1-5.6v-9.1h4.7v9.1l-1,5.6H266.9z M265.9,126.6v-5.4h4.7v5.4H265.9z"/>
	<path fill="#FFFFFF" d="M281.8,126.6V105h13.6v4.3h-8.7v4h8.1v4.3h-8.1v4.7h8.7v4.3H281.8z"/>
	<path fill="#FFFFFF" d="M310,115.6l6.6,11h-5.1l-4.2-7.1l-4.2,7.1H298l6.5-11l-6.3-10.6h5.1l4,6.8l4-6.8h5.1L310,115.6z"/>
	<path fill="#FFFFFF" d="M327.8,120h-3.7v6.6h-4.9V105h8.8c5.3,0,7.2,2.1,7.2,6.1v2.8C335.3,118,333.1,120,327.8,120z M330.4,111.6
		c0-1.6-0.6-2.3-2.6-2.3h-3.7v6.5h3.7c2.1,0,2.6-0.8,2.6-2.4V111.6z"/>
	<path fill="#FFFFFF" d="M338.2,126.6V105h13.6v4.3h-8.7v4h8v4.3h-8v4.7h8.7v4.3H338.2z"/>
	<path fill="#FFFFFF" d="M363.3,119.9h-2.9v6.7h-4.9V105h9c5.3,0,7.2,2.1,7.2,6.1v2.7c0,2.7-1,4.5-3.1,5.4l5.2,7.4H368L363.3,119.9z
		 M366.9,111.6c0-1.6-0.6-2.3-2.6-2.3h-3.9v6.4h3.9c2.1,0,2.6-0.7,2.6-2.4V111.6z"/>
	<path fill="#FFFFFF" d="M376.6,126.6V105h4.9v21.6H376.6z"/>
	<path fill="#FFFFFF" d="M390.5,114.6l-0.3,12h-4.7l0.9-21.6h4.9l5.2,13.8l5.2-13.8h4.9l0.9,21.6h-4.7l-0.3-12l-3.8,9.2h-4.3
		L390.5,114.6z"/>
	<path fill="#FFFFFF" d="M411.3,126.6V105h13.6v4.3h-8.7v4h8v4.3h-8v4.7h8.7v4.3H411.3z"/>
	<path fill="#FFFFFF" d="M433.3,112.4v14.2h-4.6V105h6l7.1,14.9V105h4.6v21.6h-6L433.3,112.4z"/>
	<path fill="#FFFFFF" d="M459.5,109.3v17.3h-4.9v-17.3h-5.8V105h16.5v4.3H459.5z"/>
	<path fill="#FFFFFF" d="M484.1,126.6h-5.1l-1.2-4.2h-7.2l-1.2,4.2h-5.1L471,105h6.5L484.1,126.6z M471.8,118.3h5l-2.5-9.1
		L471.8,118.3z"/>
	<path fill="#FFFFFF" d="M486.6,126.6V105h4.9v17.3h8.6v4.3H486.6z"/>
</g>
</svg>
